# Blender 5.1.1
# www.blender.org
mtllib villager.mtl
o Object_4
v -2.284208 12.027636 1.311771
v -2.284208 12.027636 1.311771
v -2.284208 12.027636 1.311771
v 2.215792 12.027636 1.311770
v 2.215792 12.027636 1.311770
v 2.215792 12.027636 1.311770
v 2.215791 12.027636 -2.188231
v 2.215791 12.027636 -2.188231
v 2.215791 12.027636 -2.188231
v -2.284209 12.027636 -2.188230
v -2.284209 12.027636 -2.188230
v -2.284209 12.027636 -2.188230
v 2.215792 2.527634 1.311770
v 2.215792 2.527634 1.311770
v 2.215792 2.527634 1.311770
v -2.284208 2.527634 1.311771
v -2.284208 2.527634 1.311771
v -2.284208 2.527634 1.311771
v -2.284209 2.527634 -2.188230
v -2.284209 2.527634 -2.188230
v -2.284209 2.527634 -2.188230
v 2.215791 2.527634 -2.188231
v 2.215791 2.527634 -2.188231
v 2.215791 2.527634 -2.188231
vn 1.0000 -0.0000 -0.0000
vn -0.0000 1.0000 -0.0000
vn -0.0000 -1.0000 -0.0000
vn -0.0000 -0.0000 -1.0000
vn -0.0000 -0.0000 1.0000
vn -1.0000 -0.0000 -0.0000
vt 0.219116 0.031738
vt 0.312378 0.031738
vt 0.312378 0.312500
vt 0.219116 0.312500
vt 0.218628 0.406250
vt 0.094116 0.406250
vt 0.094116 0.312988
vt 0.218628 0.312988
vt 0.343628 0.312988
vt 0.219116 0.312988
vt 0.219116 0.406250
vt 0.343628 0.406250
vt 0.312866 0.031738
vt 0.437378 0.031738
vt 0.437378 0.312500
vt 0.312866 0.312500
vt 0.094116 0.031738
vt 0.218628 0.031738
vt 0.218628 0.312500
vt 0.094116 0.312500
vt 0.000366 0.031738
vt 0.093628 0.031738
vt 0.093628 0.312500
vt 0.000366 0.312500
s 0
usemtl Villager
f 15/1/1 24/2/1 9/3/1
f 15/1/1 9/3/1 6/4/1
f 8/5/2 12/6/2 2/7/2
f 8/5/2 2/7/2 4/8/2
f 13/9/3 17/10/3 21/11/3
f 13/9/3 21/11/3 23/12/3
f 22/13/4 20/14/4 11/15/4
f 22/13/4 11/15/4 7/16/4
f 18/17/5 14/18/5 5/19/5
f 18/17/5 5/19/5 3/20/5
f 19/21/6 16/22/6 1/23/6
f 19/21/6 1/23/6 10/24/6
o Object_6
v -2.034208 11.777636 1.061770
v -2.034208 11.777636 1.061770
v -2.034208 11.777636 1.061770
v 1.965792 11.777636 1.061770
v 1.965792 11.777636 1.061770
v 1.965792 11.777636 1.061770
v 1.965792 11.777636 -1.938231
v 1.965792 11.777636 -1.938231
v 1.965792 11.777636 -1.938231
v -2.034209 11.777636 -1.938230
v -2.034209 11.777636 -1.938230
v -2.034209 11.777636 -1.938230
v 1.965792 5.777634 1.061770
v 1.965792 5.777634 1.061770
v 1.965792 5.777634 1.061770
v -2.034208 5.777634 1.061770
v -2.034208 5.777634 1.061770
v -2.034208 5.777634 1.061770
v -2.034209 5.777634 -1.938230
v -2.034209 5.777634 -1.938230
v -2.034209 5.777634 -1.938230
v 1.965792 5.777634 -1.938231
v 1.965792 5.777634 -1.938231
v 1.965792 5.777634 -1.938231
vn 1.0000 -0.0000 -0.0000
vn -0.0000 1.0000 -0.0000
vn -0.0000 -1.0000 -0.0000
vn -0.0000 -0.0000 -1.0000
vn -0.0000 -0.0000 1.0000
vn -1.0000 -0.0000 -0.0000
vt 0.469116 0.406738
vt 0.562378 0.406738
vt 0.562378 0.593750
vt 0.469116 0.593750
vt 0.468628 0.687500
vt 0.344116 0.687500
vt 0.344116 0.594238
vt 0.468628 0.594238
vt 0.593628 0.594238
vt 0.469116 0.594238
vt 0.469116 0.687500
vt 0.593628 0.687500
vt 0.562866 0.406738
vt 0.687378 0.406738
vt 0.687378 0.593750
vt 0.562866 0.593750
vt 0.344116 0.406738
vt 0.468628 0.406738
vt 0.468628 0.593750
vt 0.344116 0.593750
vt 0.250366 0.406738
vt 0.343628 0.406738
vt 0.343628 0.593750
vt 0.250366 0.593750
s 0
usemtl Villager
f 37/25/7 46/26/7 31/27/7
f 37/25/7 31/27/7 28/28/7
f 33/29/8 35/30/8 26/31/8
f 33/29/8 26/31/8 30/32/8
f 38/33/9 40/34/9 43/35/9
f 38/33/9 43/35/9 47/36/9
f 48/37/10 44/38/10 34/39/10
f 48/37/10 34/39/10 32/40/10
f 41/41/11 39/42/11 29/43/11
f 41/41/11 29/43/11 25/44/11
f 45/45/12 42/46/12 27/47/12
f 45/45/12 27/47/12 36/48/12
o Object_8
v -2.057382 16.767614 1.561770
v -2.057382 16.767614 1.561770
v -2.057382 16.767614 1.561770
v 1.942569 16.787544 1.561770
v 1.942569 16.787544 1.561770
v 1.942569 16.787544 1.561770
v 1.967481 11.787604 1.561770
v 1.967481 11.787604 1.561770
v 1.967481 11.787604 1.561770
v 1.942568 16.787544 -2.438231
v 1.942568 16.787544 -2.438231
v 1.942568 16.787544 -2.438231
v -2.057382 16.767614 -2.438231
v -2.057382 16.767614 -2.438231
v -2.057382 16.767614 -2.438231
v -2.032470 11.767674 1.561770
v -2.032470 11.767674 1.561770
v -2.032470 11.767674 1.561770
v -2.032470 11.767674 -2.438231
v -2.032470 11.767674 -2.438231
v -2.032470 11.767674 -2.438231
v 1.967480 11.787604 -2.438231
v 1.967480 11.787604 -2.438231
v 1.967480 11.787604 -2.438231
vn 1.0000 0.0050 -0.0000
vn -0.0050 1.0000 -0.0000
vn 0.0050 -1.0000 -0.0000
vn -0.0000 -0.0000 -1.0000
vn -0.0000 -0.0000 1.0000
vn -1.0000 -0.0050 -0.0000
vt 0.250366 0.719238
vt 0.374878 0.719238
vt 0.374878 0.875000
vt 0.250366 0.875000
vt 0.249878 1.000000
vt 0.125366 1.000000
vt 0.125366 0.875488
vt 0.249878 0.875488
vt 0.374878 0.875488
vt 0.250366 0.875488
vt 0.250366 1.000000
vt 0.374878 1.000000
vt 0.375366 0.719238
vt 0.499878 0.719238
vt 0.499878 0.875000
vt 0.375366 0.875000
vt 0.125366 0.719238
vt 0.249878 0.719238
vt 0.249878 0.875000
vt 0.125366 0.875000
vt 0.000366 0.719238
vt 0.124878 0.719238
vt 0.124878 0.875000
vt 0.000366 0.875000
s 0
usemtl Villager
f 57/49/13 72/50/13 60/51/13
f 57/49/13 60/51/13 54/52/13
f 59/53/14 63/54/14 50/55/14
f 59/53/14 50/55/14 52/56/14
f 55/57/15 65/58/15 69/59/15
f 55/57/15 69/59/15 71/60/15
f 70/61/16 68/62/16 62/63/16
f 70/61/16 62/63/16 58/64/16
f 66/65/17 56/66/17 53/67/17
f 66/65/17 53/67/17 51/68/17
f 67/69/18 64/70/18 49/71/18
f 67/69/18 49/71/18 61/72/18
o Object_10
v -0.539962 13.275130 2.561770
v -0.539962 13.275130 2.561770
v -0.539962 13.275130 2.561770
v 0.460026 13.280112 2.561770
v 0.460026 13.280112 2.561770
v 0.460026 13.280112 2.561770
v 0.469991 11.280137 2.561770
v 0.469991 11.280137 2.561770
v 0.469991 11.280137 2.561770
v 0.460026 13.280112 1.561770
v 0.460026 13.280112 1.561770
v 0.460026 13.280112 1.561770
v -0.539962 13.275130 1.561770
v -0.539962 13.275130 1.561770
v -0.539962 13.275130 1.561770
v -0.529997 11.275154 2.561770
v -0.529997 11.275154 2.561770
v -0.529997 11.275154 2.561770
v -0.529997 11.275154 1.561770
v -0.529997 11.275154 1.561770
v -0.529997 11.275154 1.561770
v 0.469991 11.280137 1.561770
v 0.469991 11.280137 1.561770
v 0.469991 11.280137 1.561770
vn 1.0000 0.0050 -0.0000
vn -0.0050 1.0000 -0.0000
vn 0.0050 -1.0000 -0.0000
vn -0.0000 -0.0000 -1.0000
vn -0.0000 -0.0000 1.0000
vn -1.0000 -0.0050 -0.0000
vt 0.437866 0.906738
vt 0.468628 0.906738
vt 0.468628 0.968750
vt 0.437866 0.968750
vt 0.437378 1.000000
vt 0.406616 1.000000
vt 0.406616 0.969238
vt 0.437378 0.969238
vt 0.468628 0.969238
vt 0.437866 0.969238
vt 0.437866 1.000000
vt 0.468628 1.000000
vt 0.469116 0.906738
vt 0.499878 0.906738
vt 0.499878 0.968750
vt 0.469116 0.968750
vt 0.406616 0.906738
vt 0.437378 0.906738
vt 0.437378 0.968750
vt 0.406616 0.968750
vt 0.375366 0.906738
vt 0.406128 0.906738
vt 0.406128 0.968750
vt 0.375366 0.968750
s 0
usemtl Villager
f 81/73/19 96/74/19 84/75/19
f 81/73/19 84/75/19 78/76/19
f 83/77/20 87/78/20 74/79/20
f 83/77/20 74/79/20 76/80/20
f 79/81/21 89/82/21 92/83/21
f 79/81/21 92/83/21 94/84/21
f 95/85/22 93/86/22 86/87/22
f 95/85/22 86/87/22 82/88/22
f 90/89/23 80/90/23 77/91/23
f 90/89/23 77/91/23 75/92/23
f 91/93/24 88/94/24 73/95/24
f 91/93/24 73/95/24 85/96/24
o Object_12
v -4.034208 11.691903 0.002294
v -4.034208 11.691903 0.002294
v -4.034208 11.691903 0.002294
v -2.034208 11.691903 0.002293
v -2.034208 11.691903 0.002293
v -2.034208 11.691903 0.002293
v -2.034208 10.227130 -1.359485
v -2.034208 10.227130 -1.359485
v -2.034208 10.227130 -1.359485
v -4.034208 10.227130 -1.359485
v -4.034208 10.227130 -1.359485
v -4.034208 10.227130 -1.359485
v -4.034208 8.968346 2.931840
v -4.034208 8.968346 2.931840
v -4.034208 8.968346 2.931840
v -4.034208 7.503572 1.570061
v -4.034208 7.503572 1.570061
v -4.034208 7.503572 1.570061
v -2.034208 7.503572 1.570061
v -2.034208 7.503572 1.570061
v -2.034208 7.503572 1.570061
v -2.034208 7.503572 1.570061
v 1.965792 8.968344 2.931839
v 1.965792 8.968344 2.931839
v 1.965792 8.968344 2.931839
v 1.965792 8.968344 2.931839
v 1.965792 10.330122 1.467066
v 1.965792 10.330122 1.467066
v 1.965792 10.330122 1.467066
v 1.965792 10.330122 1.467066
v 1.965791 8.865349 0.105287
v 1.965791 8.865349 0.105287
v 1.965791 8.865349 0.105287
v 1.965791 8.865349 0.105287
v 1.965792 7.503571 1.570060
v 1.965792 7.503571 1.570060
v 1.965792 7.503571 1.570060
v 1.965792 7.503571 1.570060
v -2.034208 8.968345 2.931840
v -2.034208 8.968345 2.931840
v -2.034208 8.968345 2.931840
v -2.034208 8.968345 2.931840
v 1.965791 11.691901 0.002292
v 1.965791 11.691901 0.002292
v 1.965791 11.691901 0.002292
v 3.965791 11.691901 0.002292
v 3.965791 11.691901 0.002292
v 3.965791 11.691901 0.002292
v 3.965792 8.968344 2.931839
v 3.965792 8.968344 2.931839
v 3.965792 8.968344 2.931839
v 3.965791 10.227128 -1.359486
v 3.965791 10.227128 -1.359486
v 3.965791 10.227128 -1.359486
v 1.965791 10.227128 -1.359486
v 1.965791 10.227128 -1.359486
v 1.965791 10.227128 -1.359486
v 3.965792 7.503571 1.570060
v 3.965792 7.503571 1.570060
v 3.965792 7.503571 1.570060
v -2.034208 10.330123 1.467067
v -2.034208 10.330123 1.467067
v -2.034208 10.330123 1.467067
v -2.034208 10.330123 1.467067
v -2.034208 8.865350 0.105288
v -2.034208 8.865350 0.105288
v -2.034208 8.865350 0.105288
v -2.034208 8.865350 0.105288
vn -0.0000 0.6809 -0.7324
vn -0.0000 -0.6809 0.7324
vn -0.0000 -0.7324 -0.6809
vn -0.0000 0.7324 0.6809
vn -1.0000 -0.0000 -0.0000
vn 1.0000 -0.0000 -0.0000
vn 0.0001 -0.7324 -0.6809
vn -0.0000 -0.7324 -0.6808
vt 0.812378 0.656250
vt 0.750366 0.656250
vt 0.750366 0.594238
vt 0.812378 0.594238
vt 0.874878 0.594238
vt 0.812866 0.594238
vt 0.812866 0.656250
vt 0.874878 0.656250
vt 0.875366 0.531494
vt 0.875366 0.469238
vt 0.937378 0.469238
vt 0.937378 0.593750
vt 0.875366 0.593750
vt 0.750366 0.593750
vt 0.750366 0.469238
vt 0.812378 0.469238
vt 0.812378 0.531494
vt 0.812378 0.593750
vt 0.687866 0.469238
vt 0.749878 0.469238
vt 0.749878 0.593750
vt 0.687866 0.593750
vt 0.812378 0.406250
vt 0.687866 0.406250
vt 0.687866 0.344238
vt 0.812378 0.344238
vt 0.937378 0.344238
vt 0.812866 0.344238
vt 0.812866 0.406250
vt 0.937378 0.406250
vt 0.875366 0.281738
vt 0.999878 0.281738
vt 0.999878 0.343750
vt 0.875366 0.343750
vt 0.687866 0.281738
vt 0.812378 0.281738
vt 0.812378 0.343750
vt 0.687866 0.343750
vt 0.812866 0.469238
vt 0.874878 0.469238
vt 0.874878 0.593750
vt 0.812866 0.593750
vt 0.937378 0.531494
vt 0.750366 0.531494
vt 0.687875 0.531503
vt 0.749878 0.531507
vt 0.812866 0.531494
vt 0.874864 0.531487
vt 0.874868 0.593740
vt 0.812866 0.593729
s 0
usemtl Villager
f 104/97/25 108/98/25 98/99/25
f 104/97/25 98/99/25 100/100/25
f 135/101/26 110/102/26 114/103/26
f 135/101/26 114/103/26 116/104/26
f 161/105/27 115/106/27 113/107/27
f 113/107/27 107/108/27 103/109/27
f 113/107/27 103/109/27 161/105/27
f 99/110/28 111/111/28 138/112/28
f 159/113/28 101/114/28 99/110/28
f 138/112/28 159/113/28 99/110/28
f 112/115/29 109/116/29 97/117/29
f 112/115/29 97/117/29 106/118/29
f 130/119/25 163/120/25 157/121/25
f 130/119/25 157/121/25 124/122/25
f 120/123/26 136/124/26 118/125/26
f 120/123/26 118/125/26 133/126/26
f 131/127/27 117/128/27 162/129/27
f 131/127/27 162/129/27 128/130/27
f 137/131/28 122/132/28 126/133/28
f 137/131/28 126/133/28 158/134/28
f 147/135/30 156/136/30 150/137/30
f 147/135/30 150/137/30 144/138/30
f 148/97/25 152/98/25 140/99/25
f 148/97/25 140/99/25 142/100/25
f 146/101/26 121/102/26 134/103/26
f 146/101/26 134/103/26 155/104/26
f 149/109/27 154/106/27 132/107/27
s 1
f 132/107/31 129/139/31 153/108/32
s 0
f 132/107/27 153/108/27 149/109/27
f 125/140/28 119/111/28 145/112/28
f 145/112/28 143/114/28 141/110/28
f 145/112/28 141/110/28 125/140/28
f 127/141/29 123/142/29 139/117/29
f 127/141/29 139/117/29 151/118/29
f 160/143/30 164/144/30 105/145/30
f 160/143/30 105/145/30 102/146/30
o Object_14
v -2.034208 5.777634 0.561770
v -2.034208 5.777634 0.561770
v -2.034208 5.777634 0.561770
v -0.034208 5.777634 0.561770
v -0.034208 5.777634 0.561770
v -0.034208 5.777634 0.561770
v -0.034208 5.777634 -1.438231
v -0.034208 5.777634 -1.438231
v -0.034208 5.777634 -1.438231
v -2.034208 5.777634 -1.438230
v -2.034208 5.777634 -1.438230
v -2.034208 5.777634 -1.438230
v -0.034208 -0.222367 0.561770
v -0.034208 -0.222367 0.561770
v -0.034208 -0.222367 0.561770
v -2.034208 -0.222367 0.561770
v -2.034208 -0.222367 0.561770
v -2.034208 -0.222367 0.561770
v -2.034208 -0.222367 -1.438230
v -2.034208 -0.222367 -1.438230
v -2.034208 -0.222367 -1.438230
v -0.034208 -0.222367 -1.438231
v -0.034208 -0.222367 -1.438231
v -0.034208 -0.222367 -1.438231
vn 1.0000 -0.0000 -0.0000
vn -0.0000 1.0000 -0.0000
vn -0.0000 -1.0000 -0.0000
vn -0.0000 -0.0000 -1.0000
vn -0.0000 -0.0000 1.0000
vn -1.0000 -0.0000 -0.0000
vt 0.125366 0.406738
vt 0.187378 0.406738
vt 0.187378 0.593750
vt 0.125366 0.593750
vt 0.124878 0.656250
vt 0.062866 0.656250
vt 0.062866 0.594238
vt 0.124878 0.594238
vt 0.187378 0.594238
vt 0.125366 0.594238
vt 0.125366 0.656250
vt 0.187378 0.656250
vt 0.187866 0.406738
vt 0.249878 0.406738
vt 0.249878 0.593750
vt 0.187866 0.593750
vt 0.062866 0.406738
vt 0.124878 0.406738
vt 0.124878 0.593750
vt 0.062866 0.593750
vt 0.000366 0.406738
vt 0.062378 0.406738
vt 0.062378 0.593750
vt 0.000366 0.593750
s 0
usemtl Villager
f 179/147/33 188/148/33 173/149/33
f 179/147/33 173/149/33 170/150/33
f 172/151/34 176/152/34 166/153/34
f 172/151/34 166/153/34 168/154/34
f 178/155/35 182/156/35 185/157/35
f 178/155/35 185/157/35 187/158/35
f 186/159/36 184/160/36 175/161/36
f 186/159/36 175/161/36 171/162/36
f 181/163/37 177/164/37 169/165/37
f 181/163/37 169/165/37 167/166/37
f 183/167/38 180/168/38 165/169/38
f 183/167/38 165/169/38 174/170/38
o Object_16
v -0.034208 5.777634 0.561770
v -0.034208 5.777634 0.561770
v -0.034208 5.777634 0.561770
v 1.965792 5.777634 0.561770
v 1.965792 5.777634 0.561770
v 1.965792 5.777634 0.561770
v 1.965792 5.777634 -1.438231
v 1.965792 5.777634 -1.438231
v 1.965792 5.777634 -1.438231
v -0.034208 5.777634 -1.438230
v -0.034208 5.777634 -1.438230
v -0.034208 5.777634 -1.438230
v 1.965792 -0.222367 0.561770
v 1.965792 -0.222367 0.561770
v 1.965792 -0.222367 0.561770
v -0.034208 -0.222367 0.561770
v -0.034208 -0.222367 0.561770
v -0.034208 -0.222367 0.561770
v -0.034208 -0.222367 -1.438230
v -0.034208 -0.222367 -1.438230
v -0.034208 -0.222367 -1.438230
v 1.965792 -0.222367 -1.438231
v 1.965792 -0.222367 -1.438231
v 1.965792 -0.222367 -1.438231
vn 1.0000 -0.0000 -0.0000
vn -0.0000 1.0000 -0.0000
vn -0.0000 -1.0000 -0.0000
vn -0.0000 -0.0000 -1.0000
vn -0.0000 -0.0000 1.0000
vn -1.0000 -0.0000 -0.0000
vt 0.062378 0.406738
vt 0.000366 0.406738
vt 0.000366 0.593750
vt 0.062378 0.593750
vt 0.062866 0.656250
vt 0.124878 0.656250
vt 0.124878 0.594238
vt 0.062866 0.594238
vt 0.125366 0.594238
vt 0.187378 0.594238
vt 0.187378 0.656250
vt 0.125366 0.656250
vt 0.249878 0.406738
vt 0.187866 0.406738
vt 0.187866 0.593750
vt 0.249878 0.593750
vt 0.124878 0.406738
vt 0.062866 0.406738
vt 0.062866 0.593750
vt 0.124878 0.593750
vt 0.187378 0.406738
vt 0.125366 0.406738
vt 0.125366 0.593750
vt 0.187378 0.593750
s 0
usemtl Villager
f 203/171/39 212/172/39 197/173/39
f 203/171/39 197/173/39 194/174/39
f 196/175/40 200/176/40 190/177/40
f 196/175/40 190/177/40 192/178/40
f 202/179/41 206/180/41 209/181/41
f 202/179/41 209/181/41 211/182/41
f 210/183/42 208/184/42 199/185/42
f 210/183/42 199/185/42 195/186/42
f 205/187/43 201/188/43 193/189/43
f 205/187/43 193/189/43 191/190/43
f 207/191/44 204/192/44 189/193/44
f 207/191/44 189/193/44 198/194/44
